<svg xmlns="http://www.w3.org/2000/svg" viewBox="0 0 49.818 49.818"><path d="M.953 38.891s3.184 6.921 11.405 9.64c1.827.604 3.751.751 5.667.922 7.866.703 26.714-.971 31.066-18.976 1.367-5.656.76-11.612-1.429-17.003C44.51 5.711 37.447-4.233 22.831 2.427c-8.328 3.795-7.696 10.279-5.913 14.787a7.545 7.545 0 0 1-8.06 10.316C1.669 26.584-1.825 30.904.953 38.891z" fill="#994530"/><path d="M4.69 37.18c.402.785 3.058 5.552 9.111 7.554 1.335.441 2.863.577 4.482.72l.282.025c.818.073 1.698.11 2.617.11 18.18 0 22.854-11.218 24.02-16.041 1.134-4.693.706-9.703-1.235-14.488-2.918-7.186-7.111-10.831-12.461-10.831-2.21 0-4.683.615-7.349 1.83-2.992 1.364-6.676 3.921-4.13 10.36 1.284 3.25.912 6.746-1.023 9.591-2.17 3.191-6.002 4.901-9.895 4.39a10.831 10.831 0 0 0-1.404-.099c-1.077 0-2.502.198-3.173 1.143-.767 1.08-.709 3.165.158 5.736z" fill="#d75a4a"/><path d="M21.184 46.589c-.948 0-1.858-.038-2.706-.114l-.283-.025c-1.674-.147-3.257-.287-4.706-.767-6.376-2.108-9.188-7.073-9.688-8.047l-.058-.137c-.984-2.917-.993-5.273-.026-6.635.912-1.285 2.89-1.807 5.524-1.456 3.537.466 6.959-1.054 8.936-3.961 1.746-2.565 2.082-5.723.921-8.661-3.189-8.065 2.707-10.754 4.645-11.638 9.68-4.407 16.81-1.155 21.152 9.535 2.021 4.981 2.464 10.202 1.28 15.099-1.222 5.054-6.102 16.807-24.991 16.807zM5.613 36.787c.401.758 2.936 5.155 8.503 6.997 1.229.406 2.699.536 4.256.673l.284.025c.788.07 1.639.106 2.527.106 17.469 0 21.938-10.683 23.048-15.276 1.084-4.487.672-9.286-1.19-13.877C40.29 8.663 36.409 5.229 31.506 5.229c-2.067 0-4.4.585-6.934 1.74-3.02 1.376-5.81 3.532-3.615 9.083 1.408 3.563.998 7.398-1.126 10.521-2.404 3.534-6.563 5.386-10.852 4.818-1.793-.236-3.197.019-3.632.632-.435.613-.591 2.184.266 4.764z" fill="#c64940"/><circle cx="32.455" cy="12.779" r="4" fill="#e6e6e6"/><path d="M32.455 17.779c-2.757 0-5-2.243-5-5s2.243-5 5-5 5 2.243 5 5-2.243 5-5 5zm0-8c-1.654 0-3 1.346-3 3s1.346 3 3 3 3-1.346 3-3-1.346-3-3-3z" fill="#7a3726"/><path d="M25.617 45.684l-1.941-.479c.435-1.761-1.063-3.216-3.446-4.859a12.71 12.71 0 0 1-5.327-8.595 30.096 30.096 0 0 0-.428-2.295l1.922-.548c.01.028 1.09 3.104 3.978 4.314 2.094.877 4.667.598 7.648-.832 11.578-5.554 17.102-2.646 17.332-2.52l-.967 1.752c-.04-.021-4.97-2.48-15.5 2.57-3.53 1.694-6.662 1.984-9.312.863a8.383 8.383 0 0 1-2.078-1.265 10.662 10.662 0 0 0 3.867 4.907c1.784 1.234 5.107 3.525 4.252 6.987zM27.074 27.586c-5.37 0-7.605-3.694-7.633-3.74l1.727-1.01-.863.505.859-.511c.108.179 2.714 4.335 9.738 2.105 1.54-.794 12.038-6.002 15.619-2.289l-1.439 1.389c-1.979-2.052-9.229.576-13.332 2.714l-.154.064c-1.704.551-3.207.773-4.522.773z" fill="#c64940"/></svg>